HIERARCHY
ROOT Hips
{
	OFFSET	0.000000	0.000000	0.000000
	CHANNELS 6 Xposition Yposition Zposition Zrotation Xrotation Yrotation
	JOINT LeftUpLeg
	{
		OFFSET	12.830505	-7.049846	-1.643436
		CHANNELS 3 Zrotation Xrotation Yrotation
		JOINT LeftLeg
		{
			OFFSET	0.620834	-39.957502	-1.919341
			CHANNELS 3 Zrotation Xrotation Yrotation
			JOINT LeftFoot
			{
				OFFSET	-0.413890	-44.704761	-3.870325
				CHANNELS 3 Zrotation Xrotation Yrotation
				JOINT LeftFootHeel
				{
					OFFSET	0.164738	-8.918194	-6.555130
					CHANNELS 3 Zrotation Xrotation Yrotation
					End Site
					{
						OFFSET	-0.604053	0.000000	21.044330
					}
				}
			}
		}
	}
	JOINT RightUpLeg
	{
		OFFSET	-12.830505	-7.049846	-1.643436
		CHANNELS 3 Zrotation Xrotation Yrotation
		JOINT RightLeg
		{
			OFFSET	-0.620834	-39.957502	-1.919341
			CHANNELS 3 Zrotation Xrotation Yrotation
			JOINT RightFoot
			{
				OFFSET	0.413890	-44.704761	-3.870325
				CHANNELS 3 Zrotation Xrotation Yrotation
				JOINT RightFootHeel
				{
					OFFSET	-0.164738	-8.918194	-6.555130
					CHANNELS 3 Zrotation Xrotation Yrotation
					End Site
					{
						OFFSET	0.604053	0.000000	21.044330
					}
				}
			}
		}
	}
	JOINT Spine
	{
		OFFSET	0.000000	12.498171	1.820647
		CHANNELS 3 Zrotation Xrotation Yrotation
		JOINT Spine1
		{
			OFFSET	0.000000	7.620000	0.000000
			CHANNELS 3 Zrotation Xrotation Yrotation
			JOINT LeftShoulder
			{
				OFFSET	9.167800	29.136339	-5.551221
				CHANNELS 3 Zrotation Xrotation Yrotation
				JOINT LeftArm
				{
					OFFSET	12.133453	-3.880866	1.461963
					CHANNELS 3 Zrotation Xrotation Yrotation
					JOINT LeftForeArm
					{
						OFFSET	2.507115	-31.664910	-1.069404
						CHANNELS 3 Zrotation Xrotation Yrotation
						JOINT LeftHand
						{
							OFFSET	4.116172	-24.512624	5.009439
							CHANNELS 3 Zrotation Xrotation Yrotation
							End Site
							{
								OFFSET	-0.213136	-10.931856	2.182134
							}
						}
					}
				}
			}
			JOINT RightShoulder
			{
				OFFSET	-9.167800	29.136339	-5.551221
				CHANNELS 3 Zrotation Xrotation Yrotation
				JOINT RightArm
				{
					OFFSET	-12.133453	-3.880866	1.461963
					CHANNELS 3 Zrotation Xrotation Yrotation
					JOINT RightForeArm
					{
						OFFSET	-2.507115	-31.664910	-1.069404
						CHANNELS 3 Zrotation Xrotation Yrotation
						JOINT RightHand
						{
							OFFSET	-4.116172	-24.512624	5.009439
							CHANNELS 3 Zrotation Xrotation Yrotation
							End Site
							{
								OFFSET	0.213136	-10.931856	2.182134
							}
						}
					}
				}
			}
			JOINT Neck
			{
				OFFSET	0.000000	32.926275	-3.635654
				CHANNELS 3 Zrotation Xrotation Yrotation
				JOINT Head
				{
					OFFSET	0.000000	12.481178	4.646143
					CHANNELS 3 Zrotation Xrotation Yrotation
					End Site
					{
						OFFSET	0.000000	17.715205	-2.222063
					}
				}
			}
		}
	}
}
MOTION
Frames:     14
Frame Time: 0.016667
0.000000	98.533064	0.000000	-2.868966	2.529224	45.603519	12.971467	-28.234018	14.989855	6.665009	37.531746	-6.589243	-8.840546	-12.969739	2.425656	0.	0.	0.	-17.724997	-24.278086	-19.808397	0.361686	31.264786	-0.026520	7.074228	-5.183688	-5.068490	0.	0.	0.	-0.000000	-0.000000	0.000001	-0.463666	29.888382	3.507931	15.849298	-3.211370	6.272850	-25.082251	-30.297470	-20.749331	-107.763763	-36.271210	-83.274559	0.542489	0.255905	-6.585623	-10.851973	-2.589011	2.624045	-21.872633	-27.128067	-25.222092	-44.439804	-120.393181	-47.257996	-13.422296	-3.590817	16.127840	-4.308924	-3.079137	-12.524254	14.069374	-12.308910	-14.674573	
0.018436	98.544914	0.015111	-2.869509	2.527193	45.583565	12.967539	-28.192327	14.998209	6.677979	37.479176	-6.588151	-8.854425	-12.956906	2.429607	0.	0.	0.	-17.705908	-24.239367	-19.810236	0.350239	31.206940	0.003129	7.076648	-5.169261	-5.067111	0.	0.	0.	-0.000000	0.000000	0.000001	-0.482220	29.845861	3.530200	15.859298	-3.168736	6.266159	-25.082251	-30.297470	-20.749331	-107.763763	-36.271210	-83.274559	0.542489	0.255905	-6.585623	-10.837594	-2.571881	2.621804	-21.847816	-27.072720	-25.232433	-44.443810	-120.446358	-47.230263	-13.437537	-3.589420	16.131849	-4.299775	-3.053627	-12.520798	14.069367	-12.293048	-14.675562	
0.028954	98.555368	0.018964	-2.869894	2.525749	45.569386	12.961228	-28.151833	15.000716	6.679109	37.436104	-6.579245	-8.859342	-12.952358	2.430999	0.	0.	0.	-17.691835	-24.209990	-19.806854	0.344286	31.152859	0.016726	7.079114	-5.147730	-5.064904	0.	0.	0.	-0.000000	0.000000	-0.000001	-0.494338	29.820713	3.546090	15.865235	-3.143426	6.262185	-25.082251	-30.297470	-20.749331	-107.810463	-36.251350	-83.307861	0.560237	0.293028	-6.580889	-10.826032	-2.562884	2.622867	-21.835180	-27.033012	-25.243515	-44.424026	-120.489021	-47.179886	-13.455019	-3.575156	16.150198	-4.298225	-3.043450	-12.530480	14.081205	-12.281307	-14.672406	
0.035698	98.564350	0.018410	-2.870297	2.524215	45.554417	12.974977	-28.115065	15.001181	6.663031	37.396454	-6.561341	-8.870070	-12.942444	2.434061	0.	0.	0.	-17.678282	-24.187737	-19.783590	0.349382	31.103882	0.006573	7.080911	-5.124561	-5.062325	0.	0.	0.	0.000000	-0.000000	0.000001	-0.502740	29.815577	3.563268	15.866572	-3.137737	6.261293	-25.082251	-30.297470	-20.749331	-107.875824	-36.227737	-83.355537	0.541728	0.316946	-6.575135	-10.819851	-2.571775	2.618304	-21.823828	-26.998562	-25.256699	-44.364918	-120.550385	-47.115437	-13.458508	-3.533713	16.163790	-4.299304	-3.052240	-12.536904	14.089739	-12.272519	-14.676230	
0.045493	98.577906	0.017189	-2.870938	2.521863	45.531204	12.995866	-28.063690	15.021769	6.653529	37.339832	-6.557981	-8.884936	-12.928695	2.438313	0.	0.	0.	-17.657629	-24.154680	-19.747946	0.357179	31.029776	-0.008910	7.083436	-5.089008	-5.058376	0.	0.	0.	0.000000	-0.000000	-0.000001	-0.513939	29.816555	3.590067	15.866572	-3.137737	6.261293	-25.104443	-30.319384	-20.760250	-107.905441	-36.218918	-83.367287	0.522233	0.339622	-6.579528	-10.812353	-2.594616	2.608258	-21.834513	-26.975824	-25.299255	-44.349083	-120.597343	-47.125351	-13.457647	-3.539740	16.164022	-4.300635	-3.065291	-12.540764	14.100675	-12.269556	-14.686784	
0.045695	98.580764	0.013366	-2.871144	2.521080	45.523552	13.001436	-28.055372	15.029463	6.652586	37.331696	-6.557776	-8.887295	-12.926518	2.438981	0.	0.	0.	-17.652288	-24.150534	-19.738111	0.357974	31.012115	-0.012543	7.084246	-5.077245	-5.057070	0.	0.	0.	-0.000000	-0.000000	0.000000	-0.517627	29.816891	3.598898	15.866572	-3.137737	6.261293	-25.126913	-30.341339	-20.773462	-107.884102	-36.219513	-83.349159	0.510182	0.331956	-6.577197	-10.809630	-2.602923	2.604608	-21.831924	-26.971287	-25.310963	-44.367085	-120.602005	-47.137539	-13.453648	-3.558377	16.144905	-4.300635	-3.065291	-12.540764	14.104618	-12.272945	-14.690327	
0.037052	98.583758	0.006623	-2.871534	2.519637	45.509342	13.010039	-28.051458	15.044981	6.652586	37.331696	-6.557776	-8.887295	-12.926518	2.438981	0.	0.	0.	-17.644806	-24.154148	-19.723011	0.365883	30.995228	-0.022099	7.077758	-5.059812	-5.053703	0.	0.	0.	-0.000000	-0.000000	-0.000001	-0.526681	29.806656	3.615093	15.876273	-3.129798	6.253298	-25.159836	-30.370655	-20.784056	-107.869743	-36.199852	-83.346237	0.529723	0.318288	-6.551271	-10.798094	-2.619473	2.596109	-21.832167	-26.952911	-25.329597	-44.286777	-120.667946	-47.067825	-13.452378	-3.526090	16.129387	-4.298965	-3.053706	-12.541821	14.108426	-12.274542	-14.688741	
0.028065	98.586510	0.002284	-2.871795	2.518636	45.499607	13.015934	-28.048759	15.055614	6.652586	37.331696	-6.557776	-8.887295	-12.926518	2.438981	0.	0.	0.	-17.639673	-24.156612	-19.712658	0.375558	30.982121	-0.031846	7.069735	-5.046222	-5.050566	0.	0.	0.	0.000001	-0.000000	0.000002	-0.533490	29.796625	3.626127	15.889957	-3.123769	6.241802	-25.180176	-30.388903	-20.805063	-107.866447	-36.203499	-83.340179	0.547151	0.288152	-6.546234	-10.792545	-2.618448	2.595387	-21.845631	-26.942827	-25.329576	-44.252094	-120.677490	-47.048058	-13.455378	-3.520787	16.128349	-4.298447	-3.041465	-12.546124	14.112300	-12.274522	-14.682173	
0.032307	98.590667	0.008367	-2.871795	2.518636	45.499607	13.018331	-28.032827	15.053898	6.642943	37.317284	-6.552069	-8.887295	-12.926518	2.438981	0.	0.	0.	-17.636501	-24.141882	-19.708509	0.381589	30.964369	-0.037227	7.067965	-5.043224	-5.049861	0.	0.	0.	0.000001	-0.000000	0.000002	-0.535457	29.786917	3.625938	15.898534	-3.116632	6.234738	-25.184614	-30.392818	-20.815662	-107.869759	-36.207939	-83.343834	0.555545	0.273082	-6.544470	-10.789546	-2.617608	2.592239	-21.858049	-26.933619	-25.328814	-44.242428	-120.676384	-47.054329	-13.456637	-3.534400	16.134327	-4.300086	-3.028017	-12.556611	14.119848	-12.274473	-14.669358	
0.039256	98.594378	0.016227	-2.871795	2.518636	45.499607	13.021215	-28.013674	15.051855	6.631369	37.299965	-6.545230	-8.887295	-12.926518	2.438981	0.	0.	0.	-17.633141	-24.126234	-19.704113	0.385726	30.948587	-0.040624	7.067965	-5.043224	-5.049861	0.	0.	0.	0.000001	-0.000000	0.000002	-0.541124	29.761822	3.622440	15.916317	-3.098666	6.206160	-25.168898	-30.394550	-20.826954	-107.923790	-36.207188	-83.394836	0.566288	0.291466	-6.540585	-10.788711	-2.616590	2.578615	-21.889112	-26.910480	-25.323771	-44.182819	-120.679268	-47.009769	-13.473104	-3.527891	16.165819	-4.297258	-2.999812	-12.560889	14.156328	-12.233703	-14.659294	
0.040739	98.595153	0.017911	-2.871795	2.518636	45.499607	13.023763	-27.996748	15.050035	6.621135	37.284657	-6.539186	-8.887295	-12.926518	2.438981	0.	0.	0.	-17.632420	-24.122881	-19.703175	0.386612	30.945196	-0.041353	7.067965	-5.043224	-5.049861	0.	0.	0.	0.000001	-0.000000	0.000002	-0.545174	29.753780	3.609705	15.925117	-3.091976	6.196498	-25.155834	-30.398066	-20.820234	-107.962372	-36.193485	-83.428574	0.553079	0.304370	-6.538736	-10.790874	-2.620058	2.580269	-21.904989	-26.901289	-25.322840	-44.146370	-120.678902	-46.973942	-13.484015	-3.513780	16.172081	-4.294554	-2.991067	-12.551999	14.183603	-12.200025	-14.653687	
0.040739	98.595153	0.017911	-2.871795	2.518636	45.499607	13.025422	-27.985722	15.048845	6.614466	37.274685	-6.535237	-8.887295	-12.926518	2.438981	0.	0.	0.	-17.632420	-24.122881	-19.703175	0.386612	30.945196	-0.041353	7.067965	-5.043224	-5.049861	0.	0.	0.	0.000001	-0.000000	0.000002	-0.547240	29.755672	3.596975	15.938716	-3.095170	6.196004	-25.156939	-30.398771	-20.801540	-108.002289	-36.177906	-83.459267	0.559129	0.338766	-6.533149	-10.796920	-2.621878	2.580930	-21.898445	-26.907179	-25.315205	-44.077648	-120.701317	-46.890423	-13.485436	-3.468526	16.166851	-4.298990	-2.987424	-12.559120	14.216463	-12.170766	-14.633131	
0.040739	98.595153	0.017911	-2.871795	2.518636	45.499607	13.025422	-27.985722	15.048845	6.614466	37.274685	-6.535237	-8.887295	-12.926518	2.438981	0.	0.	0.	-17.632420	-24.122881	-19.703175	0.386612	30.945196	-0.041353	7.067965	-5.043224	-5.049861	0.	0.	0.	0.000001	-0.000000	0.000002	-0.549220	29.757492	3.584793	15.960988	-3.100951	6.191686	-25.179672	-30.416622	-20.816303	-108.038803	-36.202190	-83.484062	0.539113	0.388878	-6.549357	-10.791743	-2.615641	2.572073	-21.883064	-26.898708	-25.325939	-44.049294	-120.757431	-46.860489	-13.483200	-3.445329	16.161819	-4.301162	-2.983000	-12.569826	14.253157	-12.134228	-14.609420	
0.040739	98.595153	0.017911	-2.871795	2.518636	45.499607	13.025422	-27.985722	15.048845	6.614466	37.274685	-6.535237	-8.887295	-12.926518	2.438981	0.	0.	0.	-17.632420	-24.122881	-19.703175	0.386612	30.945196	-0.041353	7.067965	-5.043224	-5.049861	0.	0.	0.	0.000001	-0.000000	0.000002	-0.549220	29.757492	3.584793	15.974476	-3.106050	6.179836	-25.190308	-30.424244	-20.824165	-108.041824	-36.223671	-83.486252	0.535312	0.396099	-6.548768	-10.783052	-2.609184	2.564261	-21.880527	-26.886057	-25.344204	-44.054901	-120.793335	-46.869400	-13.483200	-3.445329	16.161819	-4.303313	-2.977931	-12.586489	14.276634	-12.110579	-14.592617	
